<svg width="28" height="28" viewBox="0 0 28 28" fill="none" xmlns="http://www.w3.org/2000/svg">
<path d="M13.3699 11.4943V8.48187H10.333V7.0124H13.3699V4H14.8394V7.0124H17.8518V8.48187H14.8394V11.4943H13.3699ZM9.07878 24.548C8.59242 24.548 8.1778 24.3749 7.83492 24.0285C7.49205 23.6822 7.32061 23.2658 7.32061 22.7795C7.32061 22.2931 7.49378 21.8785 7.84012 21.5356C8.18647 21.1927 8.60282 21.0213 9.08916 21.0213C9.57552 21.0213 9.99014 21.1945 10.333 21.5408C10.6759 21.8872 10.8473 22.3035 10.8473 22.7899C10.8473 23.2762 10.6742 23.6908 10.3278 24.0337C9.98147 24.3766 9.56512 24.548 9.07878 24.548ZM18.9732 24.548C18.4868 24.548 18.0722 24.3749 17.7293 24.0285C17.3865 23.6822 17.215 23.2658 17.215 22.7795C17.215 22.2931 17.3882 21.8785 17.7345 21.5356C18.0809 21.1927 18.4972 21.0213 18.9836 21.0213C19.4699 21.0213 19.8845 21.1945 20.2274 21.5408C20.5703 21.8872 20.7417 22.3035 20.7417 22.7899C20.7417 23.2762 20.5686 23.6908 20.2222 24.0337C19.8759 24.3766 19.4595 24.548 18.9732 24.548ZM9.08397 19.4784C8.39822 19.4784 7.89615 19.2008 7.57777 18.6457C7.25938 18.0905 7.26346 17.5272 7.59001 16.9558L9.08397 14.2373L5.41031 6.42462H3.5V4.95515H6.34097L10.5045 13.8699H17.6559L21.4765 7.0124L22.75 7.69816L19.0029 14.4822C18.85 14.7543 18.6485 14.9652 18.3984 15.1149C18.1483 15.2645 17.8518 15.3394 17.5089 15.3394H10.1616L8.64313 18.0089H20.7417V19.4784H9.08397Z" fill="#FBFBFB"/>
</svg>
