<svg width="50" height="48" viewBox="0 0 50 48" fill="none" xmlns="http://www.w3.org/2000/svg">
<path d="M39.975 15H6.14999C5.74222 15 5.35115 15.158 5.06281 15.4393C4.77447 15.7206 4.61249 16.1022 4.61249 16.5V25.5C4.61708 28.0537 5.17687 30.5774 6.25488 32.9045C7.33289 35.2316 8.90461 37.3092 10.8663 39H6.14999C5.74222 39 5.35115 39.158 5.06281 39.4393C4.77447 39.7206 4.61249 40.1022 4.61249 40.5C4.61249 40.8978 4.77447 41.2794 5.06281 41.5607C5.35115 41.842 5.74222 42 6.14999 42H39.975C40.3828 42 40.7738 41.842 41.0622 41.5607C41.3505 41.2794 41.5125 40.8978 41.5125 40.5C41.5125 40.1022 41.3505 39.7206 41.0622 39.4393C40.7738 39.158 40.3828 39 39.975 39H35.2587C37.6134 36.9639 39.399 34.3773 40.4478 31.4831C42.4006 31.3657 44.2341 30.5263 45.5746 29.1359C46.9151 27.7455 47.6618 25.9088 47.6625 24V22.5C47.6625 20.5109 46.8526 18.6032 45.4109 17.1967C43.9692 15.7902 42.0138 15 39.975 15ZM44.5875 24C44.5868 24.9705 44.2646 25.9147 43.6688 26.6919C43.0731 27.4691 42.2358 28.0375 41.2819 28.3125C41.4342 27.3824 41.5113 26.4419 41.5125 25.5V18.2587C42.4115 18.5689 43.19 19.1432 43.7407 19.9027C44.2913 20.6623 44.5872 21.5697 44.5875 22.5V24ZM21.525 10.5V4.5C21.525 4.10218 21.687 3.72064 21.9753 3.43934C22.2636 3.15804 22.6547 3 23.0625 3C23.4703 3 23.8613 3.15804 24.1497 3.43934C24.438 3.72064 24.6 4.10218 24.6 4.5V10.5C24.6 10.8978 24.438 11.2794 24.1497 11.5607C23.8613 11.842 23.4703 12 23.0625 12C22.6547 12 22.2636 11.842 21.9753 11.5607C21.687 11.2794 21.525 10.8978 21.525 10.5ZM27.675 10.5V4.5C27.675 4.10218 27.837 3.72064 28.1253 3.43934C28.4136 3.15804 28.8047 3 29.2125 3C29.6203 3 30.0113 3.15804 30.2997 3.43934C30.588 3.72064 30.75 4.10218 30.75 4.5V10.5C30.75 10.8978 30.588 11.2794 30.2997 11.5607C30.0113 11.842 29.6203 12 29.2125 12C28.8047 12 28.4136 11.842 28.1253 11.5607C27.837 11.2794 27.675 10.8978 27.675 10.5ZM15.375 10.5V4.5C15.375 4.10218 15.537 3.72064 15.8253 3.43934C16.1136 3.15804 16.5047 3 16.9125 3C17.3203 3 17.7113 3.15804 17.9997 3.43934C18.288 3.72064 18.45 4.10218 18.45 4.5V10.5C18.45 10.8978 18.288 11.2794 17.9997 11.5607C17.7113 11.842 17.3203 12 16.9125 12C16.5047 12 16.1136 11.842 15.8253 11.5607C15.537 11.2794 15.375 10.8978 15.375 10.5Z" fill="black"/>
</svg>
