<svg width="55" height="50" viewBox="0 0 55 50" fill="none" xmlns="http://www.w3.org/2000/svg">
<path d="M45.1786 15.3846H1.96429C1.44332 15.3846 0.943701 15.5872 0.575326 15.9479C0.206951 16.3085 0 16.7977 0 17.3077V28.8462C0.00587041 32.1202 0.721041 35.3557 2.09829 38.3392C3.47555 41.3226 5.48355 43.9861 7.98973 46.1538H1.96429C1.44332 46.1538 0.943701 46.3565 0.575326 46.7171C0.206951 47.0777 0 47.5669 0 48.0769C0 48.587 0.206951 49.0761 0.575326 49.4367C0.943701 49.7974 1.44332 50 1.96429 50H45.1786C45.6995 50 46.1992 49.7974 46.5675 49.4367C46.9359 49.0761 47.1429 48.587 47.1429 48.0769C47.1429 47.5669 46.9359 47.0777 46.5675 46.7171C46.1992 46.3565 45.6995 46.1538 45.1786 46.1538H39.1531C42.1615 43.5435 44.4427 40.2273 45.7826 36.5168C48.2775 36.3663 50.6199 35.2902 52.3325 33.5076C54.0452 31.7251 54.9991 29.3703 55 26.9231V25C55 22.4498 53.9652 20.0041 52.1234 18.2009C50.2815 16.3977 47.7834 15.3846 45.1786 15.3846ZM51.0714 26.9231C51.0706 28.1673 50.6589 29.3778 49.8978 30.3742C49.1367 31.3706 48.067 32.0994 46.8482 32.4519C47.0429 31.2594 47.1414 30.0538 47.1429 28.8462V19.5625C48.2915 19.9601 49.286 20.6964 49.9895 21.6702C50.6931 22.6439 51.0711 23.8073 51.0714 25V26.9231ZM21.6071 9.61538V1.92308C21.6071 1.41305 21.8141 0.923903 22.1825 0.563256C22.5508 0.202609 23.0505 0 23.5714 0C24.0924 0 24.592 0.202609 24.9604 0.563256C25.3288 0.923903 25.5357 1.41305 25.5357 1.92308V9.61538C25.5357 10.1254 25.3288 10.6146 24.9604 10.9752C24.592 11.3359 24.0924 11.5385 23.5714 11.5385C23.0505 11.5385 22.5508 11.3359 22.1825 10.9752C21.8141 10.6146 21.6071 10.1254 21.6071 9.61538ZM29.4643 9.61538V1.92308C29.4643 1.41305 29.6712 0.923903 30.0396 0.563256C30.408 0.202609 30.9076 0 31.4286 0C31.9495 0 32.4492 0.202609 32.8175 0.563256C33.1859 0.923903 33.3929 1.41305 33.3929 1.92308V9.61538C33.3929 10.1254 33.1859 10.6146 32.8175 10.9752C32.4492 11.3359 31.9495 11.5385 31.4286 11.5385C30.9076 11.5385 30.408 11.3359 30.0396 10.9752C29.6712 10.6146 29.4643 10.1254 29.4643 9.61538ZM13.75 9.61538V1.92308C13.75 1.41305 13.957 0.923903 14.3253 0.563256C14.6937 0.202609 15.1933 0 15.7143 0C16.2352 0 16.7349 0.202609 17.1032 0.563256C17.4716 0.923903 17.6786 1.41305 17.6786 1.92308V9.61538C17.6786 10.1254 17.4716 10.6146 17.1032 10.9752C16.7349 11.3359 16.2352 11.5385 15.7143 11.5385C15.1933 11.5385 14.6937 11.3359 14.3253 10.9752C13.957 10.6146 13.75 10.1254 13.75 9.61538Z" fill="black"/>
</svg>
