<svg width="50" height="48" viewBox="0 0 50 48" fill="none" xmlns="http://www.w3.org/2000/svg">
<path d="M43.4924 11.0381C43.3481 10.8696 43.1676 10.7341 42.9637 10.6411C42.7598 10.5481 42.5375 10.5 42.3124 10.5H11.3087L10.3689 5.46375C10.2402 4.7725 9.86689 4.14726 9.31407 3.69702C8.76126 3.24678 8.06401 3.0001 7.34389 3H3.8749C3.46713 3 3.07606 3.15804 2.78773 3.43934C2.49939 3.72064 2.3374 4.10218 2.3374 4.5C2.3374 4.89782 2.49939 5.27936 2.78773 5.56066C3.07606 5.84196 3.46713 6 3.8749 6H7.33428L12.2466 32.3044C12.3913 33.0845 12.7447 33.8135 13.2709 34.4175C12.5446 35.0794 12.0203 35.9247 11.7562 36.8595C11.4922 37.7944 11.4987 38.7823 11.775 39.7138C12.0513 40.6453 12.5867 41.4839 13.3217 42.1366C14.0568 42.7894 14.9627 43.2308 15.9392 43.4119C16.9157 43.5929 17.9244 43.5067 18.8537 43.1625C19.783 42.8184 20.5964 42.23 21.2038 41.4624C21.8111 40.6948 22.1887 39.7781 22.2947 38.8139C22.4007 37.8497 22.2308 36.8758 21.8041 36H30.5332C30.1893 36.7025 30.0113 37.4714 30.0124 38.25C30.0124 39.2884 30.328 40.3034 30.9193 41.1667C31.5106 42.0301 32.351 42.703 33.3343 43.1004C34.3176 43.4977 35.3996 43.6017 36.4435 43.3991C37.4873 43.1966 38.4462 42.6965 39.1988 41.9623C39.9514 41.2281 40.4639 40.2926 40.6715 39.2742C40.8791 38.2558 40.7726 37.2002 40.3653 36.2409C39.958 35.2816 39.2683 34.4617 38.3833 33.8848C37.4984 33.3079 36.458 33 35.3937 33H16.7841C16.4241 32.9999 16.0754 32.8766 15.799 32.6515C15.5226 32.4264 15.336 32.1137 15.2716 31.7681L14.6624 28.5H36.9561C38.0363 28.4998 39.0822 28.1298 39.9114 27.4545C40.7406 26.7791 41.3006 25.8412 41.4937 24.8044L43.8307 12.2681C43.8702 12.0514 43.8605 11.8289 43.802 11.6164C43.7435 11.4038 43.6379 11.2064 43.4924 11.0381ZM35.3937 36C35.8498 36 36.2957 36.132 36.6749 36.3792C37.0542 36.6264 37.3498 36.9778 37.5243 37.389C37.6989 37.8001 37.7446 38.2525 37.6556 38.689C37.5666 39.1254 37.347 39.5263 37.0244 39.841C36.7019 40.1557 36.2909 40.3699 35.8436 40.4568C35.3962 40.5436 34.9325 40.499 34.5111 40.3287C34.0897 40.1584 33.7295 39.87 33.4761 39.5C33.2227 39.13 33.0874 38.695 33.0874 38.25C33.0874 37.6533 33.3304 37.081 33.7629 36.659C34.1954 36.2371 34.782 36 35.3937 36ZM16.9437 36C17.3998 36 17.8457 36.132 18.2249 36.3792C18.6042 36.6264 18.8998 36.9778 19.0743 37.389C19.2489 37.8001 19.2946 38.2525 19.2056 38.689C19.1166 39.1254 18.897 39.5263 18.5744 39.841C18.2519 40.1557 17.8409 40.3699 17.3936 40.4568C16.9462 40.5436 16.4825 40.499 16.0611 40.3287C15.6397 40.1584 15.2795 39.87 15.0261 39.5C14.7727 39.13 14.6374 38.695 14.6374 38.25C14.6374 37.6533 14.8804 37.081 15.3129 36.659C15.7454 36.2371 16.332 36 16.9437 36Z" fill="#B47150"/>
</svg>
