<svg width="32" height="32" viewBox="0 0 32 32" fill="none" xmlns="http://www.w3.org/2000/svg">
<path d="M25.1667 8.33333H21V7.5C21 6.83696 20.7366 6.20107 20.2678 5.73223C19.7989 5.26339 19.163 5 18.5 5H13.5C12.837 5 12.2011 5.26339 11.7322 5.73223C11.2634 6.20107 11 6.83696 11 7.5V8.33333H6.83333C6.61232 8.33333 6.40036 8.42113 6.24408 8.57741C6.0878 8.73369 6 8.94565 6 9.16667C6 9.38768 6.0878 9.59964 6.24408 9.75592C6.40036 9.9122 6.61232 10 6.83333 10H7.66667V25C7.66667 25.442 7.84226 25.8659 8.15482 26.1785C8.46738 26.4911 8.89131 26.6667 9.33333 26.6667H22.6667C23.1087 26.6667 23.5326 26.4911 23.8452 26.1785C24.1577 25.8659 24.3333 25.442 24.3333 25V10H25.1667C25.3877 10 25.5996 9.9122 25.7559 9.75592C25.9122 9.59964 26 9.38768 26 9.16667C26 8.94565 25.9122 8.73369 25.7559 8.57741C25.5996 8.42113 25.3877 8.33333 25.1667 8.33333ZM14.3333 20.8333C14.3333 21.0543 14.2455 21.2663 14.0893 21.4226C13.933 21.5789 13.721 21.6667 13.5 21.6667C13.279 21.6667 13.067 21.5789 12.9107 21.4226C12.7545 21.2663 12.6667 21.0543 12.6667 20.8333V14.1667C12.6667 13.9457 12.7545 13.7337 12.9107 13.5774C13.067 13.4211 13.279 13.3333 13.5 13.3333C13.721 13.3333 13.933 13.4211 14.0893 13.5774C14.2455 13.7337 14.3333 13.9457 14.3333 14.1667V20.8333ZM19.3333 20.8333C19.3333 21.0543 19.2455 21.2663 19.0893 21.4226C18.933 21.5789 18.721 21.6667 18.5 21.6667C18.279 21.6667 18.067 21.5789 17.9107 21.4226C17.7545 21.2663 17.6667 21.0543 17.6667 20.8333V14.1667C17.6667 13.9457 17.7545 13.7337 17.9107 13.5774C18.067 13.4211 18.279 13.3333 18.5 13.3333C18.721 13.3333 18.933 13.4211 19.0893 13.5774C19.2455 13.7337 19.3333 13.9457 19.3333 14.1667V20.8333ZM19.3333 8.33333H12.6667V7.5C12.6667 7.27899 12.7545 7.06702 12.9107 6.91074C13.067 6.75446 13.279 6.66667 13.5 6.66667H18.5C18.721 6.66667 18.933 6.75446 19.0893 6.91074C19.2455 7.06702 19.3333 7.27899 19.3333 7.5V8.33333Z" fill="#4D4D4D"/>
</svg>
